<?xml version="1.0" encoding="utf-8" standalone="no"?>
<!DOCTYPE svg PUBLIC "-//W3C//DTD SVG 1.1//EN"
  "http://www.w3.org/Graphics/SVG/1.1/DTD/svg11.dtd">
<svg xmlns:xlink="http://www.w3.org/1999/xlink" width="460.8pt" height="345.6pt" viewBox="0 0 460.8 345.6" xmlns="http://www.w3.org/2000/svg" version="1.1">
 <metadata>
  <rdf:RDF xmlns:dc="http://purl.org/dc/elements/1.1/" xmlns:cc="http://creativecommons.org/ns#" xmlns:rdf="http://www.w3.org/1999/02/22-rdf-syntax-ns#">
   <cc:Work>
    <dc:type rdf:resource="http://purl.org/dc/dcmitype/StillImage"/>
    <dc:date>2024-06-13T13:27:27.273833</dc:date>
    <dc:format>image/svg+xml</dc:format>
    <dc:creator>
     <cc:Agent>
      <dc:title>Matplotlib v3.8.2, https://matplotlib.org/</dc:title>
     </cc:Agent>
    </dc:creator>
   </cc:Work>
  </rdf:RDF>
 </metadata>
 <defs>
  <style type="text/css">*{stroke-linejoin: round; stroke-linecap: butt}</style>
 </defs>
 <g id="figure_1">
  <g id="patch_1">
   <path d="M 0 345.6 
L 460.8 345.6 
L 460.8 0 
L 0 0 
z
" style="fill: #ffffff"/>
  </g>
  <g id="axes_1">
   <g id="patch_2">
    <path d="M 57.6 307.584 
L 414.72 307.584 
L 414.72 41.472 
L 57.6 41.472 
z
" style="fill: #ffffff"/>
   </g>
   <g id="patch_3">
    <path d="M 381.578128 178.498568 
Q 369.056715 227.301376 356.813159 275.021227 
" clip-path="url(#pc02436b5e7)" style="fill: none; stroke: #000000; stroke-linecap: round"/>
    <path d="M 362.675839 268.266305 
L 356.813159 275.021227 
L 354.926829 266.278129 
z
" clip-path="url(#pc02436b5e7)" style="stroke: #000000; stroke-linecap: round"/>
   </g>
   <g id="patch_4">
    <path d="M 375.114206 171.011317 
Q 318.524748 176.927299 263.047265 182.727033 
" clip-path="url(#pc02436b5e7)" style="fill: none; stroke: #000000; stroke-linecap: round"/>
    <path d="M 271.419806 185.873549 
L 263.047265 182.727033 
L 270.588002 177.91691 
z
" clip-path="url(#pc02436b5e7)" style="stroke: #000000; stroke-linecap: round"/>
   </g>
   <g id="patch_5">
    <path d="M 379.718491 162.434899 
Q 356.147251 117.33614 333.09389 73.228238 
" clip-path="url(#pc02436b5e7)" style="fill: none; stroke: #000000; stroke-linecap: round"/>
    <path d="M 333.254538 82.171068 
L 333.09389 73.228238 
L 340.344542 78.465418 
z
" clip-path="url(#pc02436b5e7)" style="stroke: #000000; stroke-linecap: round"/>
   </g>
   <g id="patch_6">
    <path d="M 356.535441 276.103646 
Q 369.056854 227.300838 381.30041 179.580987 
" clip-path="url(#pc02436b5e7)" style="fill: none; stroke: #000000; stroke-linecap: round"/>
    <path d="M 375.43773 186.335909 
L 381.30041 179.580987 
L 383.18674 188.324085 
z
" clip-path="url(#pc02436b5e7)" style="stroke: #000000; stroke-linecap: round"/>
   </g>
   <g id="patch_7">
    <path d="M 348.249048 278.376283 
Q 303.852673 234.116833 260.248087 190.64673 
" clip-path="url(#pc02436b5e7)" style="fill: none; stroke: #000000; stroke-linecap: round"/>
    <path d="M 263.089615 199.127633 
L 260.248087 190.64673 
L 268.737726 193.462049 
z
" clip-path="url(#pc02436b5e7)" style="stroke: #000000; stroke-linecap: round"/>
   </g>
   <g id="patch_8">
    <path d="M 257.945831 176.422166 
Q 290.944344 124.154382 323.345999 72.831987 
" clip-path="url(#pc02436b5e7)" style="fill: none; stroke: #000000; stroke-linecap: round"/>
    <path d="M 315.692905 77.461258 
L 323.345999 72.831987 
L 322.457559 81.732025 
z
" clip-path="url(#pc02436b5e7)" style="stroke: #000000; stroke-linecap: round"/>
   </g>
   <g id="patch_9">
    <path d="M 244.709329 184.64418 
Q 170.954168 192.355212 98.310981 199.949989 
" clip-path="url(#pc02436b5e7)" style="fill: none; stroke: #000000; stroke-linecap: round"/>
    <path d="M 106.683543 203.096447 
L 98.310981 199.949989 
L 105.851685 195.139813 
z
" clip-path="url(#pc02436b5e7)" style="stroke: #000000; stroke-linecap: round"/>
   </g>
   <g id="patch_10">
    <path d="M 259.457841 189.858923 
Q 303.854217 234.118372 347.458803 277.588475 
" clip-path="url(#pc02436b5e7)" style="fill: none; stroke: #000000; stroke-linecap: round"/>
    <path d="M 344.617274 269.107572 
L 347.458803 277.588475 
L 338.969164 274.773156 
z
" clip-path="url(#pc02436b5e7)" style="stroke: #000000; stroke-linecap: round"/>
   </g>
   <g id="patch_11">
    <path d="M 261.939611 182.84283 
Q 318.529068 176.926847 374.006552 171.127113 
" clip-path="url(#pc02436b5e7)" style="fill: none; stroke: #000000; stroke-linecap: round"/>
    <path d="M 365.634011 167.980598 
L 374.006552 171.127113 
L 366.465815 175.937237 
z
" clip-path="url(#pc02436b5e7)" style="stroke: #000000; stroke-linecap: round"/>
   </g>
   <g id="patch_12">
    <path d="M 323.943382 71.885767 
Q 290.944869 124.153551 258.543214 175.475945 
" clip-path="url(#pc02436b5e7)" style="fill: none; stroke: #000000; stroke-linecap: round"/>
    <path d="M 266.196308 170.846674 
L 258.543214 175.475945 
L 259.431654 166.575907 
z
" clip-path="url(#pc02436b5e7)" style="stroke: #000000; stroke-linecap: round"/>
   </g>
   <g id="patch_13">
    <path d="M 332.577401 72.240042 
Q 356.148642 117.338802 379.202002 161.446703 
" clip-path="url(#pc02436b5e7)" style="fill: none; stroke: #000000; stroke-linecap: round"/>
    <path d="M 379.041355 152.503874 
L 379.202002 161.446703 
L 371.95135 156.209523 
z
" clip-path="url(#pc02436b5e7)" style="stroke: #000000; stroke-linecap: round"/>
   </g>
   <g id="patch_14">
    <path d="M 97.203991 200.065723 
Q 170.959152 192.354691 243.60234 184.759914 
" clip-path="url(#pc02436b5e7)" style="fill: none; stroke: #000000; stroke-linecap: round"/>
    <path d="M 235.229778 181.613456 
L 243.60234 184.759914 
L 236.061636 189.570089 
z
" clip-path="url(#pc02436b5e7)" style="stroke: #000000; stroke-linecap: round"/>
   </g>
   <g id="text_1">
    <g id="patch_15">
     <path d="M 375.859296 232.330728 
L 377.440517 226.167844 
Q 378.186083 223.261965 375.280204 222.516399 
L 365.905718 220.111173 
Q 362.999839 219.365607 362.254273 222.271486 
L 360.673052 228.43437 
Q 359.927486 231.340249 362.833365 232.085815 
L 372.207851 234.491041 
Q 375.11373 235.236607 375.859296 232.330728 
z
" clip-path="url(#pc02436b5e7)" style="fill: #ffffff; stroke: #ffffff; stroke-linejoin: miter"/>
    </g>
    <g clip-path="url(#pc02436b5e7)">
     <!-- 1 -->
     <g style="fill: #ff0000" transform="translate(370.938977 231.068315) rotate(-75.609934) scale(0.1 -0.1)">
      <defs>
       <path id="DejaVuSans-31" d="M 794 531 
L 1825 531 
L 1825 4091 
L 703 3866 
L 703 4441 
L 1819 4666 
L 2450 4666 
L 2450 531 
L 3481 531 
L 3481 0 
L 794 0 
L 794 531 
z
" transform="scale(0.015625)"/>
      </defs>
      <use xlink:href="#DejaVuSans-31"/>
     </g>
    </g>
   </g>
   <g id="text_2">
    <g id="patch_16">
     <path d="M 295.874878 131.028825 
L 299.271472 125.648811 
Q 300.87301 123.112065 298.336265 121.510527 
L 290.152618 116.3439 
Q 287.615873 114.742363 286.014335 117.279108 
L 282.617741 122.659122 
Q 281.016203 125.195867 283.552949 126.797405 
L 291.736595 131.964032 
Q 294.27334 133.56557 295.874878 131.028825 
z
" clip-path="url(#pc02436b5e7)" style="fill: #ffffff; stroke: #ffffff; stroke-linejoin: miter"/>
    </g>
    <g clip-path="url(#pc02436b5e7)">
     <!-- 1 -->
     <g style="fill: #ff0000" transform="translate(291.579587 128.317054) rotate(-57.734324) scale(0.1 -0.1)">
      <use xlink:href="#DejaVuSans-31"/>
     </g>
    </g>
   </g>
   <g id="text_3">
    <g id="patch_17">
     <path d="M 316.177972 185.054419 
L 322.505986 184.392875 
Q 325.489725 184.080948 325.177799 181.097209 
L 324.171511 171.471541 
Q 323.859585 168.487801 320.875845 168.799728 
L 314.547831 169.461272 
Q 311.564091 169.773198 311.876018 172.756938 
L 312.882306 182.382606 
Q 313.194232 185.366345 316.177972 185.054419 
z
" clip-path="url(#pc02436b5e7)" style="fill: #ffffff; stroke: #ffffff; stroke-linejoin: miter"/>
    </g>
    <g clip-path="url(#pc02436b5e7)">
     <!-- 1 -->
     <g style="fill: #ff0000" transform="translate(315.649809 180.002264) rotate(-5.968144) scale(0.1 -0.1)">
      <use xlink:href="#DejaVuSans-31"/>
     </g>
    </g>
   </g>
   <g id="text_4">
    <g id="patch_18">
     <path d="M 168.607779 200.482313 
L 174.935789 199.820726 
Q 177.919527 199.508779 177.60758 196.525041 
L 176.601226 186.89938 
Q 176.289279 183.915643 173.305542 184.22759 
L 166.977532 184.889177 
Q 163.993794 185.201124 164.305741 188.184861 
L 165.312095 197.810523 
Q 165.624042 200.79426 168.607779 200.482313 
z
" clip-path="url(#pc02436b5e7)" style="fill: #ffffff; stroke: #ffffff; stroke-linejoin: miter"/>
    </g>
    <g clip-path="url(#pc02436b5e7)">
     <!-- 1 -->
     <g style="fill: #ff0000" transform="translate(168.079582 195.430162) rotate(-5.968536) scale(0.1 -0.1)">
      <use xlink:href="#DejaVuSans-31"/>
     </g>
    </g>
   </g>
   <g id="text_5">
    <g id="patch_19">
     <path d="M 347.726998 118.149188 
L 350.674147 123.787957 
Q 352.063766 126.446709 354.722518 125.05709 
L 363.299761 120.574123 
Q 365.958513 119.184504 364.568894 116.525753 
L 361.621745 110.886984 
Q 360.232126 108.228232 357.573375 109.617851 
L 348.996131 114.100818 
Q 346.337379 115.490437 347.726998 118.149188 
z
" clip-path="url(#pc02436b5e7)" style="fill: #ffffff; stroke: #ffffff; stroke-linejoin: miter"/>
    </g>
    <g clip-path="url(#pc02436b5e7)">
     <!-- 1 -->
     <g style="fill: #ff0000" transform="translate(352.228874 115.796246) rotate(-297.594192) scale(0.1 -0.1)">
      <use xlink:href="#DejaVuSans-31"/>
     </g>
    </g>
   </g>
   <g id="text_6">
    <g id="patch_20">
     <path d="M 296.066003 237.423205 
L 300.571913 241.915218 
Q 302.696507 244.033259 304.814549 241.908665 
L 311.647439 235.054636 
Q 313.765481 232.930042 311.640887 230.812001 
L 307.134977 226.319987 
Q 305.010382 224.201946 302.892341 226.32654 
L 296.059451 233.180569 
Q 293.941409 235.305163 296.066003 237.423205 
z
" clip-path="url(#pc02436b5e7)" style="fill: #ffffff; stroke: #ffffff; stroke-linejoin: miter"/>
    </g>
    <g clip-path="url(#pc02436b5e7)">
     <!-- 1 -->
     <g style="fill: #ff0000" transform="translate(299.652333 233.82578) rotate(-315.088491) scale(0.1 -0.1)">
      <use xlink:href="#DejaVuSans-31"/>
     </g>
    </g>
   </g>
   <g id="text_7">
    <g id="patch_21">
     <path d="M 375.859296 232.330728 
L 377.440517 226.167844 
Q 378.186083 223.261965 375.280204 222.516399 
L 365.905718 220.111173 
Q 362.999839 219.365607 362.254273 222.271486 
L 360.673052 228.43437 
Q 359.927486 231.340249 362.833365 232.085815 
L 372.207851 234.491041 
Q 375.11373 235.236607 375.859296 232.330728 
z
" clip-path="url(#pc02436b5e7)" style="fill: #ffffff; stroke: #ffffff; stroke-linejoin: miter"/>
    </g>
    <g clip-path="url(#pc02436b5e7)">
     <!-- 1 -->
     <g style="fill: #ff0000" transform="translate(370.938977 231.068315) rotate(-75.609934) scale(0.1 -0.1)">
      <use xlink:href="#DejaVuSans-31"/>
     </g>
    </g>
   </g>
   <g id="text_8">
    <g id="patch_22">
     <path d="M 295.874878 131.028825 
L 299.271472 125.648811 
Q 300.87301 123.112065 298.336265 121.510527 
L 290.152618 116.3439 
Q 287.615873 114.742363 286.014335 117.279108 
L 282.617741 122.659122 
Q 281.016203 125.195867 283.552949 126.797405 
L 291.736595 131.964032 
Q 294.27334 133.56557 295.874878 131.028825 
z
" clip-path="url(#pc02436b5e7)" style="fill: #ffffff; stroke: #ffffff; stroke-linejoin: miter"/>
    </g>
    <g clip-path="url(#pc02436b5e7)">
     <!-- 1 -->
     <g style="fill: #ff0000" transform="translate(291.579587 128.317054) rotate(-57.734324) scale(0.1 -0.1)">
      <use xlink:href="#DejaVuSans-31"/>
     </g>
    </g>
   </g>
   <g id="text_9">
    <g id="patch_23">
     <path d="M 316.177972 185.054419 
L 322.505986 184.392875 
Q 325.489725 184.080948 325.177799 181.097209 
L 324.171511 171.471541 
Q 323.859585 168.487801 320.875845 168.799728 
L 314.547831 169.461272 
Q 311.564091 169.773198 311.876018 172.756938 
L 312.882306 182.382606 
Q 313.194232 185.366345 316.177972 185.054419 
z
" clip-path="url(#pc02436b5e7)" style="fill: #ffffff; stroke: #ffffff; stroke-linejoin: miter"/>
    </g>
    <g clip-path="url(#pc02436b5e7)">
     <!-- 1 -->
     <g style="fill: #ff0000" transform="translate(315.649809 180.002264) rotate(-5.968144) scale(0.1 -0.1)">
      <use xlink:href="#DejaVuSans-31"/>
     </g>
    </g>
   </g>
   <g id="text_10">
    <g id="patch_24">
     <path d="M 168.607779 200.482313 
L 174.935789 199.820726 
Q 177.919527 199.508779 177.60758 196.525041 
L 176.601226 186.89938 
Q 176.289279 183.915643 173.305542 184.22759 
L 166.977532 184.889177 
Q 163.993794 185.201124 164.305741 188.184861 
L 165.312095 197.810523 
Q 165.624042 200.79426 168.607779 200.482313 
z
" clip-path="url(#pc02436b5e7)" style="fill: #ffffff; stroke: #ffffff; stroke-linejoin: miter"/>
    </g>
    <g clip-path="url(#pc02436b5e7)">
     <!-- 1 -->
     <g style="fill: #ff0000" transform="translate(168.079582 195.430162) rotate(-5.968536) scale(0.1 -0.1)">
      <use xlink:href="#DejaVuSans-31"/>
     </g>
    </g>
   </g>
   <g id="text_11">
    <g id="patch_25">
     <path d="M 347.726998 118.149188 
L 350.674147 123.787957 
Q 352.063766 126.446709 354.722518 125.05709 
L 363.299761 120.574123 
Q 365.958513 119.184504 364.568894 116.525753 
L 361.621745 110.886984 
Q 360.232126 108.228232 357.573375 109.617851 
L 348.996131 114.100818 
Q 346.337379 115.490437 347.726998 118.149188 
z
" clip-path="url(#pc02436b5e7)" style="fill: #ffffff; stroke: #ffffff; stroke-linejoin: miter"/>
    </g>
    <g clip-path="url(#pc02436b5e7)">
     <!-- 1 -->
     <g style="fill: #ff0000" transform="translate(352.228874 115.796246) rotate(-297.594192) scale(0.1 -0.1)">
      <use xlink:href="#DejaVuSans-31"/>
     </g>
    </g>
   </g>
   <g id="text_12">
    <g id="patch_26">
     <path d="M 296.066003 237.423205 
L 300.571913 241.915218 
Q 302.696507 244.033259 304.814549 241.908665 
L 311.647439 235.054636 
Q 313.765481 232.930042 311.640887 230.812001 
L 307.134977 226.319987 
Q 305.010382 224.201946 302.892341 226.32654 
L 296.059451 233.180569 
Q 293.941409 235.305163 296.066003 237.423205 
z
" clip-path="url(#pc02436b5e7)" style="fill: #ffffff; stroke: #ffffff; stroke-linejoin: miter"/>
    </g>
    <g clip-path="url(#pc02436b5e7)">
     <!-- 1 -->
     <g style="fill: #ff0000" transform="translate(299.652333 233.82578) rotate(-315.088491) scale(0.1 -0.1)">
      <use xlink:href="#DejaVuSans-31"/>
     </g>
    </g>
   </g>
   <g id="matplotlib.axis_1">
    <g id="xtick_1"/>
    <g id="xtick_2"/>
    <g id="xtick_3"/>
    <g id="xtick_4"/>
    <g id="xtick_5"/>
    <g id="xtick_6"/>
    <g id="xtick_7"/>
   </g>
   <g id="matplotlib.axis_2">
    <g id="ytick_1"/>
    <g id="ytick_2"/>
    <g id="ytick_3"/>
    <g id="ytick_4"/>
    <g id="ytick_5"/>
    <g id="ytick_6"/>
    <g id="ytick_7"/>
   </g>
   <g id="PathCollection_1">
    <defs>
     <path id="m499aaba978" d="M 0 19.364917 
C 5.135636 19.364917 10.061621 17.324507 13.693064 13.693064 
C 17.324507 10.061621 19.364917 5.135636 19.364917 0 
C 19.364917 -5.135636 17.324507 -10.061621 13.693064 -13.693064 
C 10.061621 -17.324507 5.135636 -19.364917 0 -19.364917 
C -5.135636 -19.364917 -10.061621 -17.324507 -13.693064 -13.693064 
C -17.324507 -10.061621 -19.364917 -5.135636 -19.364917 0 
C -19.364917 5.135636 -17.324507 10.061621 -13.693064 13.693064 
C -10.061621 17.324507 -5.135636 19.364917 0 19.364917 
z
" style="stroke: #87ceeb; stroke-opacity: 0.8"/>
    </defs>
    <g clip-path="url(#pc02436b5e7)">
     <use xlink:href="#m499aaba978" x="383.730248" y="170.110578" style="fill: #87ceeb; fill-opacity: 0.8; stroke: #87ceeb; stroke-opacity: 0.8"/>
     <use xlink:href="#m499aaba978" x="354.383321" y="284.491636" style="fill: #87ceeb; fill-opacity: 0.8; stroke: #87ceeb; stroke-opacity: 0.8"/>
     <use xlink:href="#m499aaba978" x="253.323569" y="183.743569" style="fill: #87ceeb; fill-opacity: 0.8; stroke: #87ceeb; stroke-opacity: 0.8"/>
     <use xlink:href="#m499aaba978" x="328.565644" y="64.564364" style="fill: #87ceeb; fill-opacity: 0.8; stroke: #87ceeb; stroke-opacity: 0.8"/>
     <use xlink:href="#m499aaba978" x="88.589752" y="200.966334" style="fill: #87ceeb; fill-opacity: 0.8; stroke: #87ceeb; stroke-opacity: 0.8"/>
    </g>
   </g>
   <g id="patch_27">
    <path d="M 57.6 307.584 
L 57.6 41.472 
" style="fill: none; stroke: #000000; stroke-width: 0.8; stroke-linejoin: miter; stroke-linecap: square"/>
   </g>
   <g id="patch_28">
    <path d="M 414.72 307.584 
L 414.72 41.472 
" style="fill: none; stroke: #000000; stroke-width: 0.8; stroke-linejoin: miter; stroke-linecap: square"/>
   </g>
   <g id="patch_29">
    <path d="M 57.6 307.584 
L 414.72 307.584 
" style="fill: none; stroke: #000000; stroke-width: 0.8; stroke-linejoin: miter; stroke-linecap: square"/>
   </g>
   <g id="patch_30">
    <path d="M 57.6 41.472 
L 414.72 41.472 
" style="fill: none; stroke: #000000; stroke-width: 0.8; stroke-linejoin: miter; stroke-linecap: square"/>
   </g>
   <g id="text_13">
    <g clip-path="url(#pc02436b5e7)">
     <!-- 0 -->
     <g transform="translate(379.912748 173.421828) scale(0.12 -0.12)">
      <defs>
       <path id="DejaVuSans-30" d="M 2034 4250 
Q 1547 4250 1301 3770 
Q 1056 3291 1056 2328 
Q 1056 1369 1301 889 
Q 1547 409 2034 409 
Q 2525 409 2770 889 
Q 3016 1369 3016 2328 
Q 3016 3291 2770 3770 
Q 2525 4250 2034 4250 
z
M 2034 4750 
Q 2819 4750 3233 4129 
Q 3647 3509 3647 2328 
Q 3647 1150 3233 529 
Q 2819 -91 2034 -91 
Q 1250 -91 836 529 
Q 422 1150 422 2328 
Q 422 3509 836 4129 
Q 1250 4750 2034 4750 
z
" transform="scale(0.015625)"/>
      </defs>
      <use xlink:href="#DejaVuSans-30"/>
     </g>
    </g>
   </g>
   <g id="text_14">
    <g clip-path="url(#pc02436b5e7)">
     <!-- 3 -->
     <g transform="translate(350.565821 287.802886) scale(0.12 -0.12)">
      <defs>
       <path id="DejaVuSans-33" d="M 2597 2516 
Q 3050 2419 3304 2112 
Q 3559 1806 3559 1356 
Q 3559 666 3084 287 
Q 2609 -91 1734 -91 
Q 1441 -91 1130 -33 
Q 819 25 488 141 
L 488 750 
Q 750 597 1062 519 
Q 1375 441 1716 441 
Q 2309 441 2620 675 
Q 2931 909 2931 1356 
Q 2931 1769 2642 2001 
Q 2353 2234 1838 2234 
L 1294 2234 
L 1294 2753 
L 1863 2753 
Q 2328 2753 2575 2939 
Q 2822 3125 2822 3475 
Q 2822 3834 2567 4026 
Q 2313 4219 1838 4219 
Q 1578 4219 1281 4162 
Q 984 4106 628 3988 
L 628 4550 
Q 988 4650 1302 4700 
Q 1616 4750 1894 4750 
Q 2613 4750 3031 4423 
Q 3450 4097 3450 3541 
Q 3450 3153 3228 2886 
Q 3006 2619 2597 2516 
z
" transform="scale(0.015625)"/>
      </defs>
      <use xlink:href="#DejaVuSans-33"/>
     </g>
    </g>
   </g>
   <g id="text_15">
    <g clip-path="url(#pc02436b5e7)">
     <!-- 1 -->
     <g transform="translate(249.506069 187.054819) scale(0.12 -0.12)">
      <use xlink:href="#DejaVuSans-31"/>
     </g>
    </g>
   </g>
   <g id="text_16">
    <g clip-path="url(#pc02436b5e7)">
     <!-- 4 -->
     <g transform="translate(324.748144 67.875614) scale(0.12 -0.12)">
      <defs>
       <path id="DejaVuSans-34" d="M 2419 4116 
L 825 1625 
L 2419 1625 
L 2419 4116 
z
M 2253 4666 
L 3047 4666 
L 3047 1625 
L 3713 1625 
L 3713 1100 
L 3047 1100 
L 3047 0 
L 2419 0 
L 2419 1100 
L 313 1100 
L 313 1709 
L 2253 4666 
z
" transform="scale(0.015625)"/>
      </defs>
      <use xlink:href="#DejaVuSans-34"/>
     </g>
    </g>
   </g>
   <g id="text_17">
    <g clip-path="url(#pc02436b5e7)">
     <!-- 2 -->
     <g transform="translate(84.772252 204.277584) scale(0.12 -0.12)">
      <defs>
       <path id="DejaVuSans-32" d="M 1228 531 
L 3431 531 
L 3431 0 
L 469 0 
L 469 531 
Q 828 903 1448 1529 
Q 2069 2156 2228 2338 
Q 2531 2678 2651 2914 
Q 2772 3150 2772 3378 
Q 2772 3750 2511 3984 
Q 2250 4219 1831 4219 
Q 1534 4219 1204 4116 
Q 875 4013 500 3803 
L 500 4441 
Q 881 4594 1212 4672 
Q 1544 4750 1819 4750 
Q 2544 4750 2975 4387 
Q 3406 4025 3406 3419 
Q 3406 3131 3298 2873 
Q 3191 2616 2906 2266 
Q 2828 2175 2409 1742 
Q 1991 1309 1228 531 
z
" transform="scale(0.015625)"/>
      </defs>
      <use xlink:href="#DejaVuSans-32"/>
     </g>
    </g>
   </g>
   <g id="text_18">
    <!-- ER example graph -->
    <g transform="translate(180.994687 35.472) scale(0.12 -0.12)">
     <defs>
      <path id="DejaVuSans-45" d="M 628 4666 
L 3578 4666 
L 3578 4134 
L 1259 4134 
L 1259 2753 
L 3481 2753 
L 3481 2222 
L 1259 2222 
L 1259 531 
L 3634 531 
L 3634 0 
L 628 0 
L 628 4666 
z
" transform="scale(0.015625)"/>
      <path id="DejaVuSans-52" d="M 2841 2188 
Q 3044 2119 3236 1894 
Q 3428 1669 3622 1275 
L 4263 0 
L 3584 0 
L 2988 1197 
Q 2756 1666 2539 1819 
Q 2322 1972 1947 1972 
L 1259 1972 
L 1259 0 
L 628 0 
L 628 4666 
L 2053 4666 
Q 2853 4666 3247 4331 
Q 3641 3997 3641 3322 
Q 3641 2881 3436 2590 
Q 3231 2300 2841 2188 
z
M 1259 4147 
L 1259 2491 
L 2053 2491 
Q 2509 2491 2742 2702 
Q 2975 2913 2975 3322 
Q 2975 3731 2742 3939 
Q 2509 4147 2053 4147 
L 1259 4147 
z
" transform="scale(0.015625)"/>
      <path id="DejaVuSans-20" transform="scale(0.015625)"/>
      <path id="DejaVuSans-65" d="M 3597 1894 
L 3597 1613 
L 953 1613 
Q 991 1019 1311 708 
Q 1631 397 2203 397 
Q 2534 397 2845 478 
Q 3156 559 3463 722 
L 3463 178 
Q 3153 47 2828 -22 
Q 2503 -91 2169 -91 
Q 1331 -91 842 396 
Q 353 884 353 1716 
Q 353 2575 817 3079 
Q 1281 3584 2069 3584 
Q 2775 3584 3186 3129 
Q 3597 2675 3597 1894 
z
M 3022 2063 
Q 3016 2534 2758 2815 
Q 2500 3097 2075 3097 
Q 1594 3097 1305 2825 
Q 1016 2553 972 2059 
L 3022 2063 
z
" transform="scale(0.015625)"/>
      <path id="DejaVuSans-78" d="M 3513 3500 
L 2247 1797 
L 3578 0 
L 2900 0 
L 1881 1375 
L 863 0 
L 184 0 
L 1544 1831 
L 300 3500 
L 978 3500 
L 1906 2253 
L 2834 3500 
L 3513 3500 
z
" transform="scale(0.015625)"/>
      <path id="DejaVuSans-61" d="M 2194 1759 
Q 1497 1759 1228 1600 
Q 959 1441 959 1056 
Q 959 750 1161 570 
Q 1363 391 1709 391 
Q 2188 391 2477 730 
Q 2766 1069 2766 1631 
L 2766 1759 
L 2194 1759 
z
M 3341 1997 
L 3341 0 
L 2766 0 
L 2766 531 
Q 2569 213 2275 61 
Q 1981 -91 1556 -91 
Q 1019 -91 701 211 
Q 384 513 384 1019 
Q 384 1609 779 1909 
Q 1175 2209 1959 2209 
L 2766 2209 
L 2766 2266 
Q 2766 2663 2505 2880 
Q 2244 3097 1772 3097 
Q 1472 3097 1187 3025 
Q 903 2953 641 2809 
L 641 3341 
Q 956 3463 1253 3523 
Q 1550 3584 1831 3584 
Q 2591 3584 2966 3190 
Q 3341 2797 3341 1997 
z
" transform="scale(0.015625)"/>
      <path id="DejaVuSans-6d" d="M 3328 2828 
Q 3544 3216 3844 3400 
Q 4144 3584 4550 3584 
Q 5097 3584 5394 3201 
Q 5691 2819 5691 2113 
L 5691 0 
L 5113 0 
L 5113 2094 
Q 5113 2597 4934 2840 
Q 4756 3084 4391 3084 
Q 3944 3084 3684 2787 
Q 3425 2491 3425 1978 
L 3425 0 
L 2847 0 
L 2847 2094 
Q 2847 2600 2669 2842 
Q 2491 3084 2119 3084 
Q 1678 3084 1418 2786 
Q 1159 2488 1159 1978 
L 1159 0 
L 581 0 
L 581 3500 
L 1159 3500 
L 1159 2956 
Q 1356 3278 1631 3431 
Q 1906 3584 2284 3584 
Q 2666 3584 2933 3390 
Q 3200 3197 3328 2828 
z
" transform="scale(0.015625)"/>
      <path id="DejaVuSans-70" d="M 1159 525 
L 1159 -1331 
L 581 -1331 
L 581 3500 
L 1159 3500 
L 1159 2969 
Q 1341 3281 1617 3432 
Q 1894 3584 2278 3584 
Q 2916 3584 3314 3078 
Q 3713 2572 3713 1747 
Q 3713 922 3314 415 
Q 2916 -91 2278 -91 
Q 1894 -91 1617 61 
Q 1341 213 1159 525 
z
M 3116 1747 
Q 3116 2381 2855 2742 
Q 2594 3103 2138 3103 
Q 1681 3103 1420 2742 
Q 1159 2381 1159 1747 
Q 1159 1113 1420 752 
Q 1681 391 2138 391 
Q 2594 391 2855 752 
Q 3116 1113 3116 1747 
z
" transform="scale(0.015625)"/>
      <path id="DejaVuSans-6c" d="M 603 4863 
L 1178 4863 
L 1178 0 
L 603 0 
L 603 4863 
z
" transform="scale(0.015625)"/>
      <path id="DejaVuSans-67" d="M 2906 1791 
Q 2906 2416 2648 2759 
Q 2391 3103 1925 3103 
Q 1463 3103 1205 2759 
Q 947 2416 947 1791 
Q 947 1169 1205 825 
Q 1463 481 1925 481 
Q 2391 481 2648 825 
Q 2906 1169 2906 1791 
z
M 3481 434 
Q 3481 -459 3084 -895 
Q 2688 -1331 1869 -1331 
Q 1566 -1331 1297 -1286 
Q 1028 -1241 775 -1147 
L 775 -588 
Q 1028 -725 1275 -790 
Q 1522 -856 1778 -856 
Q 2344 -856 2625 -561 
Q 2906 -266 2906 331 
L 2906 616 
Q 2728 306 2450 153 
Q 2172 0 1784 0 
Q 1141 0 747 490 
Q 353 981 353 1791 
Q 353 2603 747 3093 
Q 1141 3584 1784 3584 
Q 2172 3584 2450 3431 
Q 2728 3278 2906 2969 
L 2906 3500 
L 3481 3500 
L 3481 434 
z
" transform="scale(0.015625)"/>
      <path id="DejaVuSans-72" d="M 2631 2963 
Q 2534 3019 2420 3045 
Q 2306 3072 2169 3072 
Q 1681 3072 1420 2755 
Q 1159 2438 1159 1844 
L 1159 0 
L 581 0 
L 581 3500 
L 1159 3500 
L 1159 2956 
Q 1341 3275 1631 3429 
Q 1922 3584 2338 3584 
Q 2397 3584 2469 3576 
Q 2541 3569 2628 3553 
L 2631 2963 
z
" transform="scale(0.015625)"/>
      <path id="DejaVuSans-68" d="M 3513 2113 
L 3513 0 
L 2938 0 
L 2938 2094 
Q 2938 2591 2744 2837 
Q 2550 3084 2163 3084 
Q 1697 3084 1428 2787 
Q 1159 2491 1159 1978 
L 1159 0 
L 581 0 
L 581 4863 
L 1159 4863 
L 1159 2956 
Q 1366 3272 1645 3428 
Q 1925 3584 2291 3584 
Q 2894 3584 3203 3211 
Q 3513 2838 3513 2113 
z
" transform="scale(0.015625)"/>
     </defs>
     <use xlink:href="#DejaVuSans-45"/>
     <use xlink:href="#DejaVuSans-52" x="63.183594"/>
     <use xlink:href="#DejaVuSans-20" x="132.666016"/>
     <use xlink:href="#DejaVuSans-65" x="164.453125"/>
     <use xlink:href="#DejaVuSans-78" x="224.226562"/>
     <use xlink:href="#DejaVuSans-61" x="283.40625"/>
     <use xlink:href="#DejaVuSans-6d" x="344.685547"/>
     <use xlink:href="#DejaVuSans-70" x="442.097656"/>
     <use xlink:href="#DejaVuSans-6c" x="505.574219"/>
     <use xlink:href="#DejaVuSans-65" x="533.357422"/>
     <use xlink:href="#DejaVuSans-20" x="594.880859"/>
     <use xlink:href="#DejaVuSans-67" x="626.667969"/>
     <use xlink:href="#DejaVuSans-72" x="690.144531"/>
     <use xlink:href="#DejaVuSans-61" x="731.257812"/>
     <use xlink:href="#DejaVuSans-70" x="792.537109"/>
     <use xlink:href="#DejaVuSans-68" x="856.013672"/>
    </g>
   </g>
  </g>
 </g>
 <defs>
  <clipPath id="pc02436b5e7">
   <rect x="57.6" y="41.472" width="357.12" height="266.112"/>
  </clipPath>
 </defs>
</svg>
